<svg id="svg" version="1.1" xmlns="http://www.w3.org/2000/svg" xmlns:xlink="http://www.w3.org/1999/xlink" width="400" height="400" viewBox="0, 0, 400,400"><g id="svgg"><path id="path0" d="M176.683 97.513 C 174.770 99.511,174.400 101.079,174.400 107.187 C 174.400 112.283,174.335 112.800,173.694 112.800 C 173.306 112.800,172.001 113.179,170.794 113.642 C 169.587 114.105,167.912 114.739,167.071 115.050 C 166.229 115.362,164.660 116.063,163.584 116.608 C 162.507 117.154,161.417 117.600,161.160 117.600 C 160.904 117.600,160.356 117.990,159.943 118.466 L 159.192 119.332 158.096 118.370 C 157.493 117.842,155.631 116.012,153.958 114.305 C 152.284 112.597,150.619 111.200,150.258 111.200 C 149.896 111.200,149.600 111.034,149.600 110.831 C 149.600 110.242,143.929 110.430,142.697 111.060 C 140.942 111.957,115.063 138.009,114.287 139.660 C 113.485 141.366,113.383 144.821,114.098 146.105 C 114.891 147.532,119.259 151.988,120.900 153.044 C 122.618 154.151,122.758 154.939,121.600 157.000 C 121.160 157.783,120.800 158.674,120.800 158.979 C 120.800 159.284,120.642 159.593,120.449 159.667 C 120.255 159.740,119.551 161.330,118.883 163.200 C 118.215 165.070,117.258 167.725,116.756 169.100 L 115.844 171.600 109.622 171.629 C 98.924 171.680,99.666 169.876,99.629 195.908 L 99.600 216.416 100.546 217.914 C 102.499 221.008,104.099 221.586,110.729 221.594 C 115.958 221.600,116.800 221.873,116.800 223.559 C 116.800 224.008,117.160 225.017,117.600 225.800 C 118.040 226.583,118.400 227.472,118.400 227.774 C 118.400 228.329,118.765 229.152,121.211 234.118 L 122.549 236.835 118.775 240.706 C 116.699 242.835,114.865 244.642,114.700 244.722 C 114.535 244.802,114.400 245.212,114.400 245.633 C 114.400 246.055,114.220 246.400,114.000 246.400 C 113.421 246.400,113.505 251.452,114.100 252.444 C 114.968 253.892,124.500 263.600,125.053 263.600 C 125.343 263.600,129.416 267.470,134.104 272.200 L 142.626 280.800 146.338 280.800 L 150.050 280.800 154.215 276.747 C 158.332 272.743,158.395 272.701,159.573 273.189 C 160.229 273.461,160.845 273.619,160.941 273.541 C 161.037 273.464,161.495 273.743,161.958 274.162 C 162.421 274.581,162.803 274.761,162.806 274.562 C 162.809 274.363,162.944 274.380,163.106 274.600 C 163.535 275.184,165.095 276.000,165.782 276.000 C 166.109 276.000,167.017 276.360,167.800 276.800 C 168.583 277.240,169.669 277.600,170.212 277.600 C 170.755 277.600,171.200 277.780,171.200 278.000 C 171.200 278.220,171.663 278.400,172.229 278.400 C 174.188 278.400,174.400 279.060,174.400 285.161 C 174.400 291.561,175.042 293.484,177.643 294.879 C 179.135 295.679,218.880 296.013,220.874 295.242 C 224.044 294.016,224.800 292.073,224.800 285.153 C 224.800 279.061,225.012 278.400,226.971 278.400 C 227.537 278.400,228.000 278.220,228.000 278.000 C 228.000 277.780,228.445 277.600,228.988 277.600 C 229.531 277.600,230.617 277.240,231.400 276.800 C 232.183 276.360,233.053 276.000,233.332 276.000 C 234.083 276.000,235.993 275.051,235.997 274.676 C 235.999 274.498,236.165 274.455,236.368 274.580 C 236.570 274.705,237.020 274.523,237.368 274.175 C 237.715 273.827,238.000 273.650,238.000 273.782 C 238.000 273.913,238.531 273.746,239.180 273.410 C 240.866 272.538,240.740 272.471,244.432 276.229 C 248.692 280.566,249.150 280.802,253.280 280.792 L 256.600 280.784 270.149 267.208 C 277.602 259.740,283.947 253.153,284.249 252.570 C 285.477 250.203,284.793 245.793,282.938 244.118 C 282.501 243.723,280.725 241.910,278.992 240.089 L 275.840 236.778 276.477 235.689 C 278.109 232.895,280.000 229.080,280.000 228.579 C 280.000 228.274,280.360 227.383,280.800 226.600 C 281.240 225.817,281.600 224.731,281.600 224.188 C 281.600 223.645,281.768 223.200,281.973 223.200 C 282.179 223.200,282.404 222.705,282.473 222.100 L 282.600 221.000 289.220 220.800 C 300.303 220.465,299.609 222.148,299.571 195.716 C 299.534 169.900,300.274 171.679,289.549 171.629 C 282.709 171.597,282.907 171.667,282.057 169.000 C 281.432 167.038,281.153 166.326,280.059 163.889 C 279.586 162.838,279.200 161.749,279.200 161.469 C 279.200 160.742,278.257 158.807,277.900 158.803 C 277.735 158.801,277.600 158.547,277.600 158.238 C 277.600 157.929,277.204 156.934,276.720 156.027 L 275.840 154.379 278.193 152.190 C 279.487 150.985,280.705 150.000,280.899 150.000 C 281.364 150.000,283.223 147.807,284.083 146.243 C 286.512 141.826,285.488 140.066,273.607 128.233 C 268.103 122.752,263.600 118.102,263.600 117.900 C 263.600 117.328,257.799 111.723,256.532 111.070 C 255.827 110.707,254.210 110.484,252.251 110.478 L 249.101 110.470 246.816 112.735 C 240.396 119.097,240.726 118.857,239.395 118.141 C 238.738 117.787,237.345 117.161,236.300 116.749 C 235.255 116.337,233.455 115.619,232.300 115.154 C 231.145 114.689,229.030 113.895,227.600 113.391 L 225.000 112.474 224.800 106.537 C 224.601 100.637,224.372 99.603,222.887 97.900 C 222.551 97.515,221.944 97.200,221.538 97.200 C 221.132 97.200,220.800 97.017,220.800 96.794 C 220.800 96.523,213.593 96.394,199.262 96.407 L 177.724 96.426 176.683 97.513 M295.800 104.400 C 296.883 105.500,297.860 106.400,297.970 106.400 C 298.080 106.400,297.283 105.500,296.200 104.400 C 295.117 103.300,294.140 102.400,294.030 102.400 C 293.920 102.400,294.717 103.300,295.800 104.400 M99.775 106.900 L 98.600 108.200 99.900 107.025 C 100.615 106.379,101.200 105.794,101.200 105.725 C 101.200 105.416,100.870 105.688,99.775 106.900 M206.200 148.400 C 206.336 148.620,207.337 148.800,208.424 148.800 C 209.511 148.800,210.400 148.980,210.400 149.200 C 210.400 149.420,210.805 149.603,211.300 149.606 C 213.432 149.620,224.286 154.722,226.152 156.588 C 226.708 157.145,227.379 157.600,227.641 157.600 C 227.904 157.600,228.690 158.185,229.387 158.900 C 230.084 159.615,231.094 160.432,231.630 160.716 C 232.167 160.999,233.047 161.899,233.587 162.716 C 234.126 163.532,235.385 165.111,236.384 166.225 C 238.746 168.859,239.277 169.564,239.992 171.006 C 240.317 171.663,240.972 172.740,241.445 173.400 C 241.919 174.060,242.430 175.005,242.581 175.500 C 242.731 175.995,243.043 176.400,243.274 176.400 C 243.509 176.400,243.592 176.786,243.463 177.279 C 243.337 177.763,243.402 178.362,243.609 178.611 C 243.815 178.859,244.051 179.409,244.132 179.831 C 244.213 180.254,244.411 180.901,244.571 181.269 C 244.731 181.637,244.911 182.177,244.970 182.469 C 245.030 182.761,245.191 183.270,245.327 183.600 C 245.464 183.930,245.643 184.650,245.726 185.200 C 245.809 185.750,245.983 186.470,246.113 186.800 C 246.896 188.790,247.483 200.277,246.835 200.925 C 246.596 201.164,246.400 202.303,246.400 203.456 C 246.400 204.609,246.220 205.664,246.000 205.800 C 245.780 205.936,245.600 206.579,245.600 207.229 C 245.600 207.879,245.438 208.723,245.241 209.105 C 244.297 210.933,243.413 213.432,243.531 213.945 C 243.603 214.258,243.492 214.624,243.284 214.757 C 242.788 215.077,241.200 218.223,241.200 218.888 C 241.200 219.174,240.840 219.632,240.400 219.907 C 239.960 220.182,239.600 220.647,239.600 220.941 C 239.600 221.235,239.240 221.802,238.800 222.200 C 238.360 222.598,238.000 223.129,238.000 223.380 C 238.000 223.631,237.100 224.810,236.000 226.000 C 234.900 227.190,234.000 228.264,234.000 228.386 C 234.000 228.845,231.947 230.800,231.465 230.800 C 231.189 230.800,230.259 231.520,229.400 232.400 C 228.541 233.280,227.676 234.000,227.479 234.000 C 227.282 234.000,226.617 234.540,226.000 235.200 C 225.383 235.860,224.710 236.400,224.504 236.400 C 224.297 236.400,222.361 237.300,220.200 238.400 C 218.039 239.500,216.066 240.400,215.816 240.400 C 215.169 240.400,213.207 241.348,213.203 241.663 C 213.201 241.807,212.858 241.836,212.441 241.727 C 212.023 241.617,211.258 241.759,210.741 242.042 C 210.223 242.324,209.296 242.506,208.679 242.445 C 208.063 242.385,207.124 242.620,206.593 242.968 C 205.186 243.890,194.014 243.890,192.607 242.968 C 192.076 242.620,191.137 242.385,190.521 242.445 C 189.904 242.506,188.977 242.324,188.459 242.042 C 187.942 241.759,187.177 241.617,186.759 241.727 C 186.342 241.836,186.000 241.762,186.000 241.563 C 186.000 241.363,185.658 241.200,185.241 241.200 C 184.823 241.200,183.455 240.660,182.200 240.000 C 180.945 239.340,179.506 238.800,179.002 238.800 C 178.498 238.800,177.990 238.550,177.872 238.244 C 177.651 237.668,175.419 236.400,174.627 236.400 C 174.379 236.400,173.917 236.040,173.600 235.600 C 173.283 235.160,172.860 234.800,172.660 234.800 C 171.870 234.800,162.800 226.569,162.800 225.853 C 162.800 225.628,162.331 224.954,161.758 224.356 C 161.185 223.758,160.330 222.555,159.858 221.682 C 157.468 217.264,157.058 216.578,156.646 216.306 C 156.401 216.144,156.339 216.009,156.508 216.006 C 156.678 216.003,156.485 215.325,156.080 214.500 C 155.675 213.675,155.100 212.190,154.802 211.200 C 154.504 210.210,154.112 209.229,153.930 209.020 C 153.749 208.811,153.600 208.057,153.600 207.344 C 153.600 206.631,153.420 205.936,153.200 205.800 C 152.980 205.664,152.800 204.404,152.800 203.000 C 152.800 201.596,152.620 200.336,152.400 200.200 C 152.175 200.061,152.000 198.137,152.000 195.800 C 152.000 193.463,152.175 191.539,152.400 191.400 C 152.620 191.264,152.800 190.083,152.800 188.776 C 152.800 187.459,152.978 186.400,153.200 186.400 C 153.420 186.400,153.600 185.781,153.600 185.024 C 153.600 184.267,153.780 183.536,154.000 183.400 C 154.220 183.264,154.400 182.724,154.400 182.200 C 154.400 181.676,154.580 181.136,154.800 181.000 C 155.020 180.864,155.200 180.324,155.200 179.800 C 155.200 179.276,155.380 178.736,155.600 178.600 C 155.820 178.464,156.000 177.924,156.000 177.400 C 156.000 176.876,156.183 176.334,156.407 176.196 C 156.630 176.058,156.717 175.790,156.600 175.600 C 156.483 175.410,156.573 175.141,156.800 175.000 C 157.026 174.860,157.470 174.173,157.784 173.473 C 158.415 172.069,159.579 170.085,160.200 169.353 C 160.420 169.094,161.230 168.027,162.000 166.983 C 163.978 164.299,169.242 158.800,169.834 158.800 C 170.106 158.800,170.759 158.305,171.285 157.700 C 171.811 157.095,172.490 156.544,172.794 156.476 C 173.098 156.407,173.989 155.846,174.773 155.229 C 176.347 153.991,178.704 152.726,181.063 151.853 C 181.908 151.540,183.587 150.905,184.794 150.442 C 186.001 149.979,187.386 149.600,187.871 149.600 C 188.356 149.600,188.864 149.420,189.000 149.200 C 189.136 148.980,190.036 148.800,191.000 148.800 C 191.964 148.800,192.864 148.620,193.000 148.400 C 193.148 148.161,195.796 148.000,199.600 148.000 C 203.404 148.000,206.052 148.161,206.200 148.400 M151.524 292.699 C 154.673 292.767,159.713 292.767,162.724 292.699 C 165.736 292.631,163.160 292.576,157.000 292.576 C 150.840 292.576,148.376 292.632,151.524 292.699 M189.717 326.297 C 191.211 326.374,193.551 326.374,194.917 326.296 C 196.282 326.218,195.060 326.155,192.200 326.155 C 189.340 326.156,188.222 326.220,189.717 326.297 M202.719 326.298 C 204.544 326.372,207.424 326.372,209.119 326.297 C 210.814 326.222,209.320 326.161,205.800 326.162 C 202.280 326.162,200.894 326.224,202.719 326.298 " stroke="none" fill="#34a4dc" fill-rule="evenodd"></path><path id="path1" d="M171.200 0.267 C 169.770 0.347,168.240 0.579,167.800 0.783 C 167.360 0.988,166.280 1.244,165.400 1.352 C 160.607 1.945,159.564 2.135,159.368 2.452 C 159.250 2.643,158.353 2.800,157.376 2.800 C 156.399 2.800,155.600 2.980,155.600 3.200 C 155.600 3.420,154.880 3.600,154.000 3.600 C 153.120 3.600,152.400 3.780,152.400 4.000 C 152.400 4.220,151.680 4.400,150.800 4.400 C 149.920 4.400,149.200 4.580,149.200 4.800 C 149.200 5.020,148.491 5.200,147.624 5.200 C 146.757 5.200,145.948 5.360,145.827 5.556 C 145.706 5.751,145.021 6.001,144.304 6.109 C 143.587 6.218,141.920 6.671,140.600 7.116 C 139.280 7.561,137.390 8.154,136.400 8.433 C 135.410 8.712,134.240 9.133,133.800 9.369 C 133.360 9.604,132.820 9.814,132.600 9.835 C 131.683 9.923,129.745 10.560,129.000 11.019 C 128.560 11.289,127.480 11.734,126.600 12.008 C 125.720 12.281,124.820 12.639,124.600 12.803 C 124.380 12.968,123.750 13.234,123.200 13.396 C 122.650 13.558,121.062 14.210,119.672 14.845 C 118.282 15.480,117.027 16.000,116.883 16.000 C 116.416 16.000,108.204 20.191,108.067 20.500 C 107.993 20.665,107.616 20.800,107.229 20.800 C 106.841 20.800,106.198 21.160,105.800 21.600 C 105.402 22.040,104.834 22.400,104.538 22.400 C 104.242 22.400,104.000 22.580,104.000 22.800 C 104.000 23.020,103.766 23.200,103.480 23.200 C 102.744 23.200,100.807 24.141,100.803 24.500 C 100.801 24.665,100.451 24.800,100.024 24.800 C 99.597 24.800,99.147 24.963,99.024 25.162 C 98.901 25.361,97.780 26.126,96.534 26.862 C 95.287 27.598,93.802 28.512,93.234 28.894 C 92.665 29.276,91.833 29.752,91.384 29.952 C 90.935 30.153,90.327 30.605,90.035 30.958 C 89.742 31.311,89.282 31.600,89.013 31.600 C 88.744 31.600,88.198 31.960,87.800 32.400 C 87.402 32.840,86.868 33.200,86.613 33.200 C 86.358 33.200,85.632 33.740,85.000 34.400 C 84.368 35.060,83.642 35.600,83.387 35.600 C 83.132 35.600,82.598 35.960,82.200 36.400 C 81.802 36.840,81.324 37.200,81.138 37.200 C 80.951 37.200,80.100 37.875,79.246 38.700 C 77.571 40.318,75.353 42.078,74.584 42.400 C 73.288 42.942,52.000 63.396,52.000 64.099 C 52.000 64.278,50.923 65.544,49.606 66.912 C 48.289 68.280,47.209 69.588,47.206 69.819 C 47.203 70.049,46.480 70.941,45.600 71.800 C 44.720 72.659,44.000 73.518,44.000 73.708 C 44.000 74.020,43.318 74.918,40.500 78.315 C 40.006 78.912,39.601 79.606,39.600 79.857 C 39.600 80.109,39.338 80.415,39.017 80.538 C 38.504 80.735,37.066 82.643,35.764 84.854 C 35.525 85.261,35.060 85.911,34.732 86.297 C 34.403 86.684,33.829 87.667,33.456 88.483 C 33.084 89.299,32.608 90.071,32.400 90.200 C 32.192 90.329,31.726 91.056,31.365 91.817 C 31.004 92.578,30.549 93.200,30.354 93.200 C 30.159 93.200,30.000 93.560,30.000 94.000 C 30.000 94.440,29.841 94.800,29.647 94.800 C 29.347 94.800,28.848 95.849,28.654 96.887 C 28.624 97.045,28.330 97.497,28.000 97.892 C 27.670 98.286,26.602 100.227,25.628 102.204 C 24.653 104.182,23.315 106.880,22.655 108.200 C 21.458 110.591,19.816 113.958,18.362 117.000 C 17.942 117.880,17.598 118.807,17.599 119.059 C 17.600 119.312,17.060 120.545,16.400 121.800 C 15.740 123.055,15.200 124.412,15.200 124.817 C 15.200 125.222,15.020 125.664,14.800 125.800 C 14.580 125.936,14.400 126.476,14.400 127.000 C 14.400 127.524,14.220 128.064,14.000 128.200 C 13.780 128.336,13.600 128.876,13.600 129.400 C 13.600 129.924,13.420 130.464,13.200 130.600 C 12.980 130.736,12.800 131.276,12.800 131.800 C 12.800 132.324,12.620 132.864,12.400 133.000 C 12.180 133.136,12.000 133.676,12.000 134.200 C 12.000 134.724,11.820 135.264,11.600 135.400 C 11.380 135.536,11.200 136.076,11.200 136.600 C 11.200 137.124,11.020 137.664,10.800 137.800 C 10.580 137.936,10.400 138.656,10.400 139.400 C 10.400 140.144,10.220 140.864,10.000 141.000 C 9.780 141.136,9.596 141.642,9.590 142.124 C 9.585 142.606,9.242 144.012,8.827 145.249 C 8.413 146.486,7.947 148.694,7.790 150.155 C 7.634 151.616,7.347 152.909,7.153 153.029 C 6.959 153.149,6.800 154.126,6.800 155.200 C 6.800 156.274,6.620 157.264,6.400 157.400 C 5.712 157.825,5.980 162.866,6.761 164.199 C 7.485 165.434,10.806 167.500,12.172 167.564 C 12.596 167.584,13.496 167.767,14.172 167.970 C 14.847 168.174,16.750 168.716,18.400 169.175 C 25.816 171.239,29.093 172.095,30.300 172.284 C 31.015 172.396,31.600 172.648,31.600 172.844 C 31.600 173.040,32.219 173.200,32.976 173.200 C 33.733 173.200,34.469 173.387,34.610 173.616 C 34.752 173.845,35.177 173.934,35.555 173.814 C 35.933 173.694,36.593 173.861,37.021 174.185 C 37.449 174.509,38.355 174.780,39.033 174.787 C 39.712 174.794,40.399 174.932,40.560 175.094 C 40.884 175.417,44.541 176.324,46.900 176.666 C 47.725 176.786,48.400 177.045,48.400 177.242 C 48.400 177.439,48.940 177.600,49.600 177.600 C 50.260 177.600,50.800 177.780,50.800 178.000 C 50.800 178.220,51.520 178.400,52.400 178.400 C 53.280 178.400,54.000 178.580,54.000 178.800 C 54.000 179.020,54.619 179.200,55.376 179.200 C 56.133 179.200,56.864 179.380,57.000 179.600 C 57.440 180.312,64.445 180.033,65.779 179.250 C 67.419 178.288,68.336 176.536,68.371 174.300 C 68.387 173.255,68.580 172.400,68.800 172.400 C 69.020 172.400,69.200 171.421,69.200 170.224 C 69.200 169.027,69.380 167.936,69.600 167.800 C 69.820 167.664,70.000 166.944,70.000 166.200 C 70.000 165.456,70.180 164.736,70.400 164.600 C 70.620 164.464,70.800 163.744,70.800 163.000 C 70.800 162.256,70.980 161.536,71.200 161.400 C 71.420 161.264,71.600 160.569,71.600 159.856 C 71.600 159.143,71.752 158.389,71.937 158.180 C 72.393 157.666,73.790 153.118,73.673 152.530 C 73.621 152.272,73.749 151.955,73.957 151.826 C 74.165 151.698,74.732 150.289,75.216 148.696 C 75.701 147.103,76.255 145.629,76.449 145.420 C 76.642 145.211,76.800 144.695,76.800 144.273 C 76.800 143.852,78.268 140.693,80.062 137.253 C 84.091 129.528,84.077 129.553,84.755 128.707 C 85.424 127.874,86.994 125.023,87.624 123.500 C 87.874 122.895,88.245 122.400,88.449 122.400 C 88.653 122.400,88.996 121.995,89.211 121.500 C 89.427 121.005,90.221 119.790,90.975 118.800 C 91.730 117.810,92.359 116.812,92.373 116.581 C 92.388 116.351,93.120 115.459,94.000 114.600 C 94.880 113.741,95.600 112.841,95.600 112.600 C 95.600 112.359,96.320 111.459,97.200 110.600 C 98.080 109.741,98.800 108.772,98.800 108.448 C 98.800 107.777,112.762 94.010,113.449 94.004 C 113.696 94.002,114.645 93.190,115.557 92.200 C 116.470 91.210,117.358 90.400,117.530 90.400 C 117.703 90.400,118.535 89.766,119.381 88.992 C 120.226 88.218,121.001 87.668,121.103 87.770 C 121.205 87.872,121.735 87.426,122.280 86.778 C 122.825 86.130,123.587 85.600,123.974 85.600 C 124.360 85.600,125.002 85.240,125.400 84.800 C 125.798 84.360,126.344 84.000,126.613 84.000 C 126.882 84.000,127.334 83.721,127.616 83.380 C 127.899 83.039,128.900 82.410,129.841 81.981 C 130.782 81.553,131.656 81.033,131.784 80.827 C 131.911 80.620,133.047 79.953,134.308 79.344 C 135.568 78.736,136.702 78.093,136.826 77.915 C 137.265 77.288,144.521 73.628,144.883 73.851 C 145.085 73.976,145.599 73.763,146.025 73.377 C 146.451 72.992,146.800 72.791,146.800 72.931 C 146.800 73.072,147.435 72.829,148.212 72.393 C 148.989 71.957,149.883 71.600,150.200 71.600 C 150.517 71.600,151.417 71.240,152.200 70.800 C 152.983 70.360,153.968 70.000,154.389 70.000 C 154.809 70.000,155.264 69.820,155.400 69.600 C 155.536 69.380,156.076 69.200,156.600 69.200 C 157.124 69.200,157.664 69.020,157.800 68.800 C 157.936 68.580,158.476 68.400,159.000 68.400 C 159.524 68.400,160.064 68.220,160.200 68.000 C 160.336 67.780,160.876 67.600,161.400 67.600 C 161.924 67.600,162.464 67.420,162.600 67.200 C 162.736 66.980,163.276 66.800,163.800 66.800 C 164.324 66.800,164.852 66.640,164.973 66.444 C 165.094 66.249,165.779 66.001,166.496 65.893 C 167.213 65.786,168.844 65.406,170.120 65.049 C 171.395 64.692,172.960 64.400,173.596 64.400 C 174.232 64.400,174.864 64.220,175.000 64.000 C 175.136 63.780,176.216 63.600,177.400 63.600 C 178.584 63.600,179.664 63.420,179.800 63.200 C 179.936 62.980,181.351 62.800,182.944 62.800 C 184.537 62.800,186.025 62.615,186.251 62.389 C 187.082 61.558,217.677 62.355,218.580 63.231 C 218.789 63.434,219.824 63.600,220.880 63.600 C 221.936 63.600,222.800 63.780,222.800 64.000 C 222.800 64.220,223.522 64.400,224.405 64.400 C 225.288 64.400,226.323 64.563,226.705 64.763 C 227.462 65.158,232.214 66.361,234.304 66.686 C 235.021 66.797,235.706 67.049,235.827 67.244 C 235.948 67.440,236.476 67.600,237.000 67.600 C 237.524 67.600,238.064 67.780,238.200 68.000 C 238.336 68.220,238.876 68.400,239.400 68.400 C 239.924 68.400,240.464 68.580,240.600 68.800 C 240.736 69.020,241.377 69.200,242.024 69.200 C 242.671 69.200,243.200 69.380,243.200 69.600 C 243.200 69.820,243.555 70.000,243.988 70.000 C 244.421 70.000,245.417 70.360,246.200 70.800 C 246.983 71.240,247.943 71.600,248.332 71.600 C 248.721 71.600,249.256 71.816,249.520 72.080 C 249.784 72.344,250.000 72.412,250.000 72.231 C 250.000 72.050,250.288 72.141,250.640 72.433 C 250.993 72.726,251.547 73.004,251.871 73.052 C 253.123 73.235,261.918 77.616,263.800 78.992 C 264.460 79.475,265.650 80.166,266.445 80.528 C 267.240 80.889,268.117 81.459,268.394 81.793 C 268.671 82.127,269.118 82.400,269.387 82.400 C 269.656 82.400,270.202 82.760,270.600 83.200 C 270.998 83.640,271.538 84.000,271.800 84.000 C 272.062 84.000,272.602 84.360,273.000 84.800 C 273.398 85.240,273.938 85.600,274.200 85.600 C 274.462 85.600,275.002 85.960,275.400 86.400 C 275.798 86.840,276.412 87.200,276.763 87.200 C 277.115 87.200,277.912 87.740,278.535 88.400 C 279.158 89.060,279.857 89.600,280.089 89.600 C 280.321 89.600,281.048 90.230,281.706 91.000 C 282.364 91.770,283.126 92.400,283.400 92.400 C 283.675 92.400,285.484 94.020,287.422 96.000 C 289.360 97.980,291.233 99.600,291.586 99.600 C 291.939 99.600,292.530 100.095,292.899 100.700 C 293.269 101.305,295.287 103.594,297.385 105.786 C 299.483 107.978,301.200 109.966,301.200 110.204 C 301.200 110.443,301.920 111.341,302.800 112.200 C 303.680 113.059,304.400 113.968,304.400 114.219 C 304.400 114.470,304.760 115.002,305.200 115.400 C 305.640 115.798,306.000 116.332,306.000 116.587 C 306.000 116.842,306.540 117.568,307.200 118.200 C 307.860 118.832,308.415 119.541,308.433 119.775 C 308.451 120.009,309.429 121.550,310.606 123.200 C 311.784 124.850,313.245 127.190,313.855 128.400 C 314.464 129.610,315.111 130.704,315.294 130.831 C 315.860 131.227,320.000 139.710,320.000 140.476 C 320.000 140.874,320.180 141.200,320.400 141.200 C 320.620 141.200,320.800 141.560,320.800 142.000 C 320.800 142.440,320.980 142.800,321.200 142.800 C 321.420 142.800,321.600 143.149,321.600 143.576 C 321.600 144.003,321.780 144.464,322.000 144.600 C 322.220 144.736,322.400 145.180,322.400 145.586 C 322.400 145.992,322.742 147.016,323.160 147.862 C 323.578 148.708,324.299 150.740,324.763 152.379 C 325.227 154.017,325.810 155.483,326.058 155.636 C 326.306 155.789,326.419 156.388,326.308 156.967 C 326.198 157.546,326.263 158.115,326.454 158.233 C 326.644 158.351,326.800 158.876,326.800 159.400 C 326.800 159.924,326.980 160.464,327.200 160.600 C 327.420 160.736,327.600 161.456,327.600 162.200 C 327.600 162.944,327.780 163.664,328.000 163.800 C 328.220 163.936,328.400 164.836,328.400 165.800 C 328.400 166.764,328.580 167.664,328.800 167.800 C 329.020 167.936,329.200 168.847,329.200 169.824 C 329.200 170.801,329.365 171.600,329.566 171.600 C 329.934 171.600,330.207 173.941,330.616 180.600 C 330.737 182.580,331.018 184.567,331.241 185.015 C 331.961 186.469,331.140 210.400,330.371 210.400 C 330.167 210.400,330.000 211.559,330.000 212.976 C 330.000 214.393,329.820 215.664,329.600 215.800 C 329.380 215.936,329.200 216.836,329.200 217.800 C 329.200 218.764,329.020 219.664,328.800 219.800 C 328.580 219.936,328.400 220.836,328.400 221.800 C 328.400 222.764,328.220 223.664,328.000 223.800 C 327.780 223.936,327.597 224.442,327.594 224.924 C 327.591 225.406,327.295 226.610,326.937 227.600 C 326.579 228.590,326.312 229.831,326.343 230.359 C 326.375 230.886,326.222 231.532,326.004 231.795 C 325.442 232.472,324.000 237.119,324.000 238.252 C 324.000 238.773,323.820 239.200,323.600 239.200 C 323.380 239.200,323.200 239.472,323.200 239.805 C 323.200 240.138,323.048 240.723,322.863 241.105 C 321.201 244.532,320.798 245.466,320.799 245.888 C 320.800 246.156,320.415 247.056,319.945 247.888 C 317.960 251.399,314.400 258.538,314.400 259.007 C 314.400 259.286,314.150 259.610,313.844 259.728 C 313.244 259.958,312.000 262.194,312.000 263.042 C 312.000 263.327,311.775 263.704,311.500 263.880 C 311.225 264.056,310.820 264.497,310.600 264.859 C 310.380 265.222,309.615 266.356,308.900 267.379 C 308.185 268.403,307.600 269.377,307.600 269.545 C 307.600 269.713,307.060 270.368,306.400 271.000 C 305.740 271.632,305.198 272.431,305.196 272.775 C 305.194 273.119,304.654 273.825,303.996 274.345 C 303.338 274.865,302.800 275.502,302.800 275.760 C 302.800 276.019,301.900 277.117,300.800 278.200 C 299.700 279.283,298.800 280.360,298.800 280.592 C 298.800 281.153,285.575 294.508,285.295 294.229 C 285.176 294.109,284.301 294.683,283.353 295.505 C 281.769 296.878,279.817 298.457,276.542 301.017 C 275.850 301.558,275.102 302.000,274.878 302.000 C 274.654 302.000,274.017 302.540,273.461 303.200 C 272.906 303.860,272.170 304.400,271.826 304.400 C 271.482 304.400,271.200 304.580,271.200 304.800 C 271.200 305.020,270.842 305.200,270.403 305.200 C 269.965 305.200,269.382 305.560,269.107 306.000 C 268.832 306.440,268.301 306.800,267.926 306.800 C 267.552 306.800,266.965 307.200,266.623 307.689 C 266.280 308.178,266.000 308.446,266.000 308.285 C 266.000 307.907,259.744 311.044,259.406 311.590 C 259.148 312.007,255.915 313.599,255.322 313.601 C 255.145 313.602,253.765 314.225,252.255 314.985 C 250.746 315.745,248.883 316.575,248.117 316.828 C 247.350 317.081,246.245 317.537,245.661 317.841 C 245.078 318.146,244.296 318.396,243.924 318.398 C 243.552 318.399,243.136 318.580,243.000 318.800 C 242.864 319.020,242.313 319.200,241.776 319.200 C 241.239 319.200,240.800 319.380,240.800 319.600 C 240.800 319.820,240.260 320.000,239.600 320.000 C 238.940 320.000,238.400 320.180,238.400 320.400 C 238.400 320.620,237.860 320.800,237.200 320.800 C 236.540 320.800,236.000 320.980,236.000 321.200 C 236.000 321.420,235.280 321.600,234.400 321.600 C 233.520 321.600,232.800 321.780,232.800 322.000 C 232.800 322.220,232.091 322.400,231.224 322.400 C 230.357 322.400,229.548 322.560,229.427 322.756 C 229.190 323.139,228.252 323.339,223.600 323.994 C 221.950 324.227,219.832 324.593,218.894 324.808 C 217.956 325.024,216.331 325.200,215.283 325.200 C 214.235 325.200,212.999 325.465,212.536 325.789 C 211.419 326.572,187.789 326.655,186.855 325.880 C 186.538 325.616,184.820 325.272,183.039 325.115 C 180.233 324.869,178.282 324.574,171.296 323.342 C 170.579 323.215,169.894 322.951,169.773 322.756 C 169.652 322.560,169.113 322.400,168.576 322.400 C 167.593 322.400,167.216 321.485,168.000 321.000 C 168.220 320.864,168.400 320.144,168.400 319.400 C 168.400 318.656,168.580 317.936,168.800 317.800 C 169.020 317.664,169.200 317.021,169.200 316.371 C 169.200 315.721,169.361 314.877,169.557 314.495 C 170.162 313.318,173.205 300.280,173.202 298.878 C 173.199 296.877,171.776 294.111,170.378 293.388 C 169.194 292.776,145.386 292.391,144.451 292.968 C 144.269 293.081,139.827 293.192,134.581 293.214 C 129.336 293.237,124.749 293.413,124.390 293.605 C 124.031 293.798,119.161 294.056,113.568 294.180 C 107.976 294.304,98.900 294.588,93.400 294.811 C 87.900 295.034,78.585 295.308,72.700 295.420 C 66.205 295.545,62.000 295.777,62.000 296.013 C 62.000 296.252,58.121 296.400,51.824 296.400 C 45.471 296.400,41.554 296.550,41.400 296.800 C 41.264 297.020,40.720 297.200,40.190 297.200 C 36.003 297.200,33.208 303.167,35.395 307.439 C 35.722 308.077,56.567 329.165,81.718 354.300 L 127.446 400.000 132.461 400.000 C 137.694 400.000,138.089 399.878,138.955 398.000 C 139.107 397.670,139.454 397.040,139.726 396.600 C 139.998 396.160,140.997 394.406,141.946 392.702 C 142.894 390.998,143.830 389.505,144.024 389.385 C 144.219 389.265,144.695 388.499,145.081 387.683 C 145.467 386.867,146.009 385.930,146.284 385.600 C 146.559 385.270,147.013 384.687,147.292 384.305 C 147.772 383.648,147.974 383.656,151.000 384.451 C 152.760 384.914,154.920 385.380,155.800 385.487 C 156.680 385.594,157.571 385.844,157.780 386.041 C 157.989 386.238,158.898 386.400,159.800 386.400 C 160.702 386.400,161.611 386.563,161.820 386.763 C 162.029 386.963,163.100 387.228,164.200 387.352 C 165.300 387.476,167.550 387.775,169.200 388.016 C 170.850 388.257,173.955 388.544,176.100 388.654 C 178.245 388.763,180.000 389.017,180.000 389.218 C 180.000 389.699,215.594 389.703,216.173 389.222 C 216.412 389.024,218.226 388.769,220.204 388.656 C 223.679 388.457,226.529 388.105,232.000 387.196 C 233.430 386.959,235.500 386.666,236.600 386.546 C 237.700 386.425,238.771 386.163,238.980 385.963 C 239.189 385.763,239.943 385.600,240.656 385.600 C 241.369 385.600,242.064 385.420,242.200 385.200 C 242.336 384.980,243.056 384.800,243.800 384.800 C 244.544 384.800,245.252 384.640,245.373 384.444 C 245.494 384.249,246.179 384.000,246.896 383.891 C 249.118 383.555,256.579 381.531,256.980 381.156 C 257.189 380.960,257.774 380.800,258.280 380.800 C 258.786 380.800,259.200 380.620,259.200 380.400 C 259.200 380.180,259.740 380.000,260.400 380.000 C 261.060 380.000,261.600 379.820,261.600 379.600 C 261.600 379.380,262.140 379.200,262.800 379.200 C 263.460 379.200,264.000 379.020,264.000 378.800 C 264.000 378.580,264.414 378.400,264.920 378.400 C 265.974 378.400,267.992 377.547,267.997 377.100 C 267.999 376.935,268.510 376.800,269.133 376.800 C 269.757 376.800,270.390 376.677,270.541 376.526 C 270.806 376.261,271.781 375.879,275.600 374.545 C 276.590 374.199,277.715 373.637,278.100 373.296 C 278.485 372.955,278.800 372.792,278.800 372.933 C 278.800 373.259,290.154 367.526,290.333 367.109 C 290.407 366.939,290.812 366.800,291.233 366.800 C 291.655 366.800,292.000 366.620,292.000 366.400 C 292.000 366.180,292.360 366.000,292.800 366.000 C 293.240 366.000,293.600 365.820,293.600 365.600 C 293.600 365.380,293.938 365.200,294.351 365.200 C 294.764 365.200,295.329 364.927,295.606 364.593 C 295.883 364.259,296.760 363.688,297.555 363.326 C 298.350 362.963,299.312 362.401,299.693 362.077 C 300.074 361.754,301.093 361.109,301.958 360.645 C 303.480 359.827,309.363 356.002,310.225 355.269 C 310.459 355.071,311.063 354.687,311.567 354.418 C 312.071 354.148,313.031 353.404,313.701 352.764 C 314.371 352.124,315.069 351.600,315.252 351.600 C 315.436 351.600,316.084 351.159,316.693 350.620 C 317.302 350.080,318.700 348.910,319.800 348.019 C 320.900 347.128,322.951 345.454,324.358 344.299 C 329.131 340.383,350.400 318.698,350.400 317.748 C 350.400 317.536,351.120 316.659,352.000 315.800 C 352.880 314.941,353.600 314.038,353.600 313.794 C 353.600 313.549,354.140 312.832,354.800 312.200 C 355.460 311.568,356.000 310.836,356.000 310.574 C 356.000 310.312,356.275 309.870,356.611 309.591 C 357.231 309.076,359.600 305.724,359.600 305.362 C 359.600 305.253,360.051 304.713,360.602 304.161 C 361.154 303.610,361.950 302.481,362.373 301.653 C 362.796 300.824,363.425 299.911,363.771 299.624 C 364.117 299.337,364.400 298.876,364.400 298.600 C 364.400 298.324,364.679 297.866,365.020 297.584 C 365.361 297.301,365.990 296.300,366.419 295.359 C 366.847 294.418,367.367 293.544,367.574 293.416 C 368.066 293.112,369.200 290.827,369.200 290.139 C 369.200 289.842,369.380 289.600,369.600 289.600 C 369.820 289.600,370.000 289.240,370.000 288.800 C 370.000 288.360,370.180 288.000,370.400 288.000 C 370.620 288.000,370.800 287.646,370.800 287.214 C 370.800 286.782,371.175 286.227,371.634 285.982 C 372.093 285.736,372.387 285.453,372.287 285.354 C 372.187 285.254,372.982 283.446,374.053 281.336 C 375.124 279.226,376.000 277.108,376.000 276.630 C 376.000 276.151,376.156 275.589,376.346 275.380 C 376.946 274.721,379.200 270.372,379.199 269.875 C 379.198 269.464,379.604 268.525,381.263 265.105 C 381.448 264.723,381.600 264.144,381.600 263.818 C 381.600 263.491,381.960 262.583,382.400 261.800 C 382.840 261.017,383.200 260.032,383.200 259.611 C 383.200 259.191,383.357 258.750,383.550 258.631 C 383.743 258.512,383.900 257.924,383.900 257.324 C 383.900 256.724,384.102 256.166,384.350 256.083 C 384.597 256.001,384.800 255.509,384.800 254.990 C 384.800 254.472,384.980 253.936,385.200 253.800 C 385.420 253.664,385.600 252.944,385.600 252.200 C 385.600 251.456,385.780 250.736,386.000 250.600 C 386.220 250.464,386.400 249.924,386.400 249.400 C 386.400 248.876,386.580 248.336,386.800 248.200 C 387.020 248.064,387.200 247.344,387.200 246.600 C 387.200 245.856,387.380 245.136,387.600 245.000 C 387.820 244.864,388.000 244.324,388.000 243.800 C 388.000 243.276,388.180 242.736,388.400 242.600 C 388.620 242.464,388.800 241.832,388.800 241.196 C 388.800 240.560,389.090 238.995,389.445 237.720 C 390.275 234.739,390.804 231.961,391.068 229.200 C 391.184 227.990,391.429 226.816,391.612 226.592 C 391.795 226.367,392.071 224.117,392.225 221.592 C 392.379 219.066,392.650 216.816,392.827 216.590 C 393.966 215.139,393.960 174.342,392.820 171.800 C 392.623 171.360,392.355 169.020,392.226 166.600 C 392.012 162.582,391.758 160.847,390.793 156.800 C 390.610 156.030,390.250 154.320,389.993 153.000 C 389.303 149.446,388.028 144.125,387.214 141.400 C 386.820 140.080,386.278 138.190,386.010 137.200 C 385.742 136.210,385.360 135.087,385.161 134.705 C 384.962 134.323,384.800 133.659,384.800 133.229 C 384.800 132.799,384.620 132.336,384.400 132.200 C 384.180 132.064,384.000 131.524,384.000 131.000 C 384.000 130.476,383.820 129.936,383.600 129.800 C 383.380 129.664,383.200 129.124,383.200 128.600 C 383.200 128.076,383.020 127.536,382.800 127.400 C 382.580 127.264,382.400 126.809,382.400 126.389 C 382.400 125.968,382.040 124.983,381.600 124.200 C 381.160 123.417,380.800 122.517,380.800 122.200 C 380.800 121.883,380.440 120.983,380.000 120.200 C 379.560 119.417,379.200 118.522,379.200 118.212 C 379.200 117.649,377.000 113.337,376.346 112.620 C 376.156 112.411,376.000 111.910,376.000 111.507 C 376.000 111.103,375.513 109.834,374.919 108.687 C 374.324 107.539,373.823 106.510,373.805 106.400 C 373.704 105.792,371.115 100.795,370.800 100.600 C 370.594 100.473,369.882 99.230,369.218 97.837 C 368.553 96.445,367.738 95.080,367.405 94.804 C 367.072 94.528,366.800 94.054,366.800 93.751 C 366.800 93.448,366.620 93.200,366.400 93.200 C 366.180 93.200,366.000 92.868,366.000 92.462 C 366.000 92.056,365.640 91.398,365.200 91.000 C 364.760 90.602,364.400 90.062,364.400 89.800 C 364.400 89.538,364.040 88.998,363.600 88.600 C 363.160 88.202,362.800 87.662,362.800 87.400 C 362.800 87.138,362.440 86.598,362.000 86.200 C 361.560 85.802,361.200 85.262,361.200 85.000 C 361.200 84.738,360.840 84.198,360.400 83.800 C 359.960 83.402,359.588 82.879,359.573 82.638 C 359.559 82.397,358.930 81.390,358.175 80.400 C 357.421 79.410,356.376 77.970,355.854 77.200 C 355.331 76.430,354.520 75.457,354.052 75.038 C 353.583 74.619,353.200 74.065,353.200 73.808 C 353.200 73.550,352.750 72.917,352.200 72.400 C 351.650 71.883,351.200 71.288,351.200 71.077 C 351.200 70.261,327.685 46.000,326.894 46.000 C 326.662 46.000,325.701 45.191,324.759 44.202 C 323.817 43.214,322.705 42.297,322.287 42.164 C 321.870 42.032,320.894 41.221,320.118 40.362 C 319.342 39.503,318.492 38.800,318.228 38.800 C 317.965 38.800,317.232 38.260,316.600 37.600 C 315.968 36.940,315.242 36.400,314.987 36.400 C 314.732 36.400,314.198 36.040,313.800 35.600 C 313.402 35.160,312.822 34.800,312.512 34.800 C 312.202 34.800,311.494 34.260,310.939 33.600 C 310.383 32.940,309.703 32.400,309.426 32.400 C 309.150 32.400,308.598 32.040,308.200 31.600 C 307.802 31.160,307.154 30.800,306.761 30.800 C 306.367 30.800,305.810 30.482,305.523 30.094 C 305.235 29.705,304.505 29.169,303.900 28.902 C 303.295 28.636,302.800 28.223,302.800 27.985 C 302.800 27.747,302.635 27.655,302.432 27.780 C 302.230 27.905,301.793 27.736,301.461 27.404 C 301.129 27.072,300.677 26.800,300.457 26.800 C 300.237 26.800,299.819 26.567,299.529 26.283 C 298.919 25.687,295.946 24.030,288.600 20.192 C 285.740 18.698,282.080 16.783,280.466 15.938 C 278.852 15.092,277.283 14.400,276.978 14.400 C 276.674 14.400,275.783 14.040,275.000 13.600 C 274.217 13.160,273.311 12.800,272.988 12.800 C 272.665 12.800,272.400 12.659,272.400 12.487 C 272.400 12.315,271.915 12.134,271.322 12.085 C 270.730 12.036,270.145 11.862,270.022 11.698 C 269.900 11.534,269.350 11.336,268.800 11.259 C 268.250 11.181,267.668 10.911,267.506 10.659 C 267.344 10.406,267.209 10.339,267.206 10.509 C 267.203 10.679,266.781 10.544,266.268 10.208 C 265.756 9.872,265.221 9.712,265.081 9.853 C 264.940 9.993,264.414 9.850,263.912 9.533 C 263.411 9.217,262.190 8.722,261.200 8.432 C 260.210 8.142,258.128 7.477,256.573 6.953 C 255.018 6.429,253.263 6.000,252.673 6.000 C 252.083 6.000,251.600 5.820,251.600 5.600 C 251.600 5.380,250.880 5.200,250.000 5.200 C 249.120 5.200,248.400 5.020,248.400 4.800 C 248.400 4.580,247.680 4.400,246.800 4.400 C 245.920 4.400,245.200 4.220,245.200 4.000 C 245.200 3.780,244.480 3.600,243.600 3.600 C 242.720 3.600,242.000 3.443,242.000 3.251 C 242.000 3.059,241.145 2.794,240.100 2.661 C 239.055 2.529,237.300 2.222,236.200 1.979 C 235.100 1.735,233.300 1.442,232.200 1.327 C 231.100 1.212,229.947 0.911,229.639 0.659 C 229.104 0.221,178.132 -0.121,171.200 0.267 M154.000 114.600 C 154.746 115.370,155.447 116.000,155.557 116.000 C 155.667 116.000,155.146 115.370,154.400 114.600 C 153.654 113.830,152.953 113.200,152.843 113.200 C 152.733 113.200,153.254 113.830,154.000 114.600 M129.775 123.300 L 128.600 124.600 129.900 123.425 C 131.112 122.330,131.384 122.000,131.075 122.000 C 131.006 122.000,130.421 122.585,129.775 123.300 M196.300 243.498 C 198.115 243.572,201.085 243.572,202.900 243.498 C 204.715 243.423,203.230 243.363,199.600 243.363 C 195.970 243.363,194.485 243.423,196.300 243.498 " stroke="none" fill="#3c5c74" fill-rule="evenodd"></path></g></svg>