<svg id="svg" version="1.1" xmlns="http://www.w3.org/2000/svg" xmlns:xlink="http://www.w3.org/1999/xlink" width="400" height="400" viewBox="0, 0, 400,400"><g id="svgg"><path id="path0" d="M169.400 0.452 C 166.665 1.916,164.067 6.367,162.764 11.820 C 162.294 13.789,161.750 15.713,161.555 16.095 C 161.360 16.477,161.200 17.411,161.200 18.171 C 161.200 18.931,161.059 19.640,160.887 19.746 C 160.715 19.852,160.529 20.535,160.474 21.263 C 160.418 21.991,160.209 22.751,160.008 22.952 C 159.808 23.152,159.731 23.785,159.838 24.358 C 160.077 25.637,158.654 27.516,157.200 27.843 C 156.650 27.967,155.570 28.209,154.800 28.381 C 154.030 28.553,152.590 28.985,151.600 29.341 C 150.610 29.697,149.406 29.991,148.924 29.994 C 148.442 29.997,147.936 30.180,147.800 30.400 C 147.664 30.620,146.933 30.800,146.176 30.800 C 145.419 30.800,144.800 30.980,144.800 31.200 C 144.800 31.420,144.451 31.600,144.024 31.600 C 143.597 31.600,143.136 31.780,143.000 32.000 C 142.864 32.220,142.324 32.400,141.800 32.400 C 141.276 32.400,140.736 32.580,140.600 32.800 C 140.464 33.020,140.009 33.200,139.589 33.200 C 139.168 33.200,138.234 33.523,137.512 33.919 C 136.790 34.314,135.390 34.892,134.400 35.204 C 133.410 35.515,131.255 36.452,129.611 37.285 C 127.967 38.118,126.302 38.800,125.911 38.800 C 125.520 38.800,125.200 38.980,125.200 39.200 C 125.200 39.420,124.840 39.600,124.400 39.600 C 123.960 39.600,123.600 39.780,123.600 40.000 C 123.600 40.220,123.357 40.400,123.060 40.400 C 122.240 40.400,113.696 44.711,113.531 45.208 C 113.451 45.448,113.092 45.687,112.733 45.739 C 112.374 45.792,111.793 46.074,111.440 46.367 C 111.088 46.659,110.800 46.758,110.800 46.587 C 110.800 46.416,110.470 46.574,110.068 46.939 C 109.665 47.303,109.244 47.510,109.132 47.398 C 109.020 47.287,108.602 47.556,108.202 47.998 C 107.447 48.832,106.000 49.097,106.000 48.400 C 106.000 48.180,105.764 48.000,105.475 48.000 C 105.187 48.000,104.602 47.676,104.175 47.280 C 103.384 46.545,102.005 45.834,101.543 45.922 C 101.402 45.949,100.807 45.528,100.222 44.986 C 99.637 44.444,98.982 44.000,98.765 44.000 C 98.351 44.000,96.342 42.805,96.000 42.356 C 95.890 42.211,94.945 41.692,93.900 41.202 C 92.855 40.713,92.000 40.173,92.000 40.003 C 92.000 39.686,91.888 39.637,88.800 38.610 C 85.416 37.486,77.200 38.194,77.200 39.611 C 77.200 39.777,76.795 40.021,76.300 40.152 C 75.443 40.380,41.149 74.527,40.097 76.200 C 39.820 76.640,39.396 77.450,39.154 78.000 C 38.912 78.550,38.553 79.313,38.357 79.695 C 37.867 80.648,37.904 87.893,38.400 88.200 C 38.620 88.336,38.800 88.769,38.800 89.162 C 38.800 90.153,39.908 92.279,40.553 92.527 C 40.846 92.639,41.193 93.265,41.323 93.917 C 41.454 94.570,41.805 95.350,42.103 95.652 C 42.401 95.953,43.085 97.009,43.622 97.998 C 44.160 98.987,44.909 100.139,45.286 100.558 C 45.664 100.978,45.878 101.474,45.763 101.661 C 45.647 101.847,45.743 102.000,45.976 102.000 C 46.209 102.000,46.400 102.320,46.400 102.712 C 46.400 103.103,46.760 103.683,47.200 104.000 C 47.640 104.317,48.000 104.809,48.000 105.094 C 48.000 105.378,48.219 105.961,48.486 106.388 C 48.894 107.042,48.830 107.317,48.086 108.109 C 47.599 108.627,47.200 109.225,47.200 109.437 C 47.200 109.649,46.674 110.836,46.031 112.075 C 45.388 113.315,44.964 114.430,45.088 114.555 C 45.213 114.679,45.022 114.894,44.664 115.031 C 43.971 115.297,41.200 120.393,41.200 121.400 C 41.200 121.730,41.065 122.001,40.900 122.003 C 40.541 122.007,39.600 123.944,39.600 124.680 C 39.600 124.966,39.420 125.200,39.200 125.200 C 38.980 125.200,38.800 125.581,38.800 126.047 C 38.800 126.513,38.080 128.245,37.200 129.896 C 36.320 131.547,35.600 133.148,35.600 133.454 C 35.600 133.760,35.443 134.323,35.250 134.705 C 33.692 137.798,33.200 138.976,33.200 139.614 C 33.200 140.020,33.020 140.464,32.800 140.600 C 32.580 140.736,32.400 141.276,32.400 141.800 C 32.400 142.324,32.220 142.864,32.000 143.000 C 31.780 143.136,31.600 143.597,31.600 144.024 C 31.600 144.451,31.420 144.800,31.200 144.800 C 30.980 144.800,30.800 145.419,30.800 146.176 C 30.800 146.933,30.620 147.664,30.400 147.800 C 30.180 147.936,30.000 148.656,30.000 149.400 C 30.000 150.144,29.820 150.864,29.600 151.000 C 29.380 151.136,29.200 151.676,29.200 152.200 C 29.200 152.724,29.020 153.264,28.800 153.400 C 28.580 153.536,28.400 154.256,28.400 155.000 C 28.400 155.744,28.220 156.464,28.000 156.600 C 27.780 156.736,27.599 157.242,27.597 157.724 C 27.594 158.787,25.613 160.033,24.420 159.721 C 23.967 159.603,23.339 159.719,23.026 159.979 C 22.712 160.239,21.897 160.468,21.213 160.487 C 20.530 160.507,19.877 160.675,19.762 160.861 C 19.647 161.048,18.789 161.200,17.856 161.200 C 16.923 161.200,15.986 161.374,15.773 161.587 C 15.561 161.799,14.805 162.017,14.093 162.072 C 13.382 162.126,12.800 162.312,12.800 162.485 C 12.800 162.658,12.373 162.800,11.850 162.800 C 8.410 162.800,2.066 166.510,0.567 169.398 C -0.279 171.029,-0.279 228.971,0.567 230.602 C 2.066 233.490,8.410 237.200,11.850 237.200 C 12.373 237.200,12.800 237.342,12.800 237.515 C 12.800 237.688,13.382 237.874,14.093 237.928 C 14.805 237.983,15.561 238.201,15.773 238.413 C 15.986 238.626,16.923 238.800,17.856 238.800 C 18.789 238.800,19.647 238.952,19.762 239.139 C 19.877 239.325,20.530 239.493,21.213 239.513 C 21.897 239.532,22.712 239.761,23.026 240.021 C 23.339 240.281,23.967 240.397,24.420 240.279 C 25.613 239.967,27.594 241.213,27.597 242.276 C 27.599 242.758,27.780 243.264,28.000 243.400 C 28.220 243.536,28.400 244.272,28.400 245.036 C 28.400 245.805,28.632 246.514,28.918 246.624 C 29.248 246.750,29.380 247.312,29.280 248.164 C 29.194 248.902,29.321 249.627,29.562 249.776 C 29.803 249.925,30.000 250.476,30.000 251.000 C 30.000 251.524,30.180 252.064,30.400 252.200 C 30.620 252.336,30.800 252.887,30.800 253.424 C 30.800 253.961,30.980 254.400,31.200 254.400 C 31.420 254.400,31.600 254.929,31.600 255.576 C 31.600 256.223,31.780 256.864,32.000 257.000 C 32.220 257.136,32.400 257.676,32.400 258.200 C 32.400 258.724,32.580 259.264,32.800 259.400 C 33.020 259.536,33.200 259.980,33.200 260.386 C 33.200 260.792,33.560 261.861,34.000 262.762 C 34.440 263.663,35.160 265.137,35.600 266.038 C 36.040 266.939,36.402 267.884,36.405 268.138 C 36.408 268.392,37.113 269.976,37.972 271.658 C 38.831 273.340,39.593 275.140,39.667 275.658 C 39.841 276.891,43.689 277.117,43.922 275.909 C 43.995 275.528,56.207 263.064,71.059 248.210 L 98.063 221.203 97.823 218.101 C 97.691 216.396,97.484 213.290,97.365 211.200 C 97.245 209.110,96.979 207.229,96.773 207.020 C 96.259 206.497,96.285 190.118,96.800 189.800 C 97.020 189.664,97.200 188.404,97.200 187.000 C 97.200 185.596,97.380 184.336,97.600 184.200 C 97.820 184.064,98.000 183.074,98.000 182.000 C 98.000 180.926,98.180 179.936,98.400 179.800 C 98.620 179.664,98.800 178.944,98.800 178.200 C 98.800 177.456,98.980 176.736,99.200 176.600 C 99.420 176.464,99.600 175.744,99.600 175.000 C 99.600 174.256,99.780 173.536,100.000 173.400 C 100.220 173.264,100.400 172.544,100.400 171.800 C 100.400 171.056,100.580 170.336,100.800 170.200 C 101.020 170.064,101.200 169.543,101.200 169.043 C 101.200 168.543,101.325 168.009,101.477 167.856 C 101.629 167.704,101.814 167.183,101.888 166.698 C 101.962 166.214,102.198 165.642,102.411 165.429 C 102.625 165.215,102.800 164.721,102.800 164.332 C 102.800 163.943,103.160 162.983,103.600 162.200 C 104.040 161.417,104.400 160.522,104.400 160.212 C 104.400 159.903,104.949 158.648,105.621 157.425 C 106.292 156.201,106.730 155.200,106.592 155.200 C 106.455 155.200,106.627 154.915,106.975 154.568 C 107.323 154.220,107.505 153.770,107.380 153.568 C 107.255 153.365,107.343 153.200,107.576 153.200 C 107.809 153.200,108.004 152.885,108.009 152.500 C 108.014 152.115,108.370 151.350,108.800 150.800 C 109.230 150.250,109.586 149.597,109.591 149.349 C 109.596 149.101,109.879 148.666,110.220 148.384 C 110.561 148.101,111.182 147.118,111.600 146.200 C 112.018 145.282,112.639 144.299,112.980 144.016 C 113.321 143.734,113.600 143.282,113.600 143.013 C 113.600 142.744,113.960 142.198,114.400 141.800 C 114.840 141.402,115.200 140.771,115.200 140.398 C 115.200 140.025,115.740 139.306,116.400 138.800 C 117.060 138.294,117.600 137.632,117.600 137.328 C 117.600 137.024,118.320 136.113,119.200 135.304 C 120.080 134.495,120.800 133.624,120.800 133.369 C 120.800 132.839,133.244 120.345,134.100 120.016 C 134.896 119.710,137.043 118.026,138.582 116.500 C 139.304 115.785,140.160 115.200,140.485 115.200 C 140.810 115.200,141.402 114.840,141.800 114.400 C 142.198 113.960,142.744 113.600,143.013 113.600 C 143.282 113.600,143.734 113.321,144.016 112.980 C 144.299 112.639,145.300 112.010,146.241 111.581 C 147.182 111.153,148.056 110.633,148.184 110.427 C 148.311 110.220,149.447 109.551,150.708 108.940 C 151.968 108.329,153.060 107.687,153.134 107.512 C 153.208 107.338,153.418 107.288,153.602 107.401 C 153.785 107.515,154.220 107.323,154.568 106.975 C 154.915 106.627,155.200 106.449,155.200 106.578 C 155.200 106.708,156.087 106.364,157.171 105.815 C 159.316 104.728,160.385 104.310,167.000 101.972 C 169.420 101.116,171.805 100.413,172.300 100.408 C 172.795 100.404,173.200 100.220,173.200 100.000 C 173.200 99.780,173.729 99.600,174.376 99.600 C 175.023 99.600,175.664 99.420,175.800 99.200 C 175.936 98.980,176.631 98.800,177.344 98.800 C 178.057 98.800,178.811 98.637,179.020 98.437 C 179.229 98.237,180.300 97.972,181.400 97.848 C 182.500 97.724,184.750 97.415,186.400 97.162 C 190.431 96.543,210.604 96.543,214.000 97.162 C 215.430 97.422,217.500 97.734,218.600 97.854 C 219.700 97.975,220.771 98.237,220.980 98.437 C 221.189 98.637,221.943 98.800,222.656 98.800 C 223.369 98.800,224.064 98.980,224.200 99.200 C 224.336 99.420,225.157 99.600,226.024 99.600 C 226.891 99.600,227.600 99.780,227.600 100.000 C 227.600 100.220,228.052 100.400,228.604 100.400 C 229.157 100.400,230.372 100.749,231.304 101.176 C 232.237 101.603,234.401 102.413,236.113 102.977 C 237.825 103.542,240.480 104.635,242.013 105.407 C 243.546 106.179,244.800 106.705,244.800 106.576 C 244.800 106.448,245.085 106.627,245.432 106.975 C 245.780 107.323,246.215 107.515,246.398 107.401 C 246.582 107.288,246.798 107.393,246.878 107.634 C 246.959 107.876,247.512 108.102,248.108 108.137 C 248.703 108.172,249.274 108.416,249.375 108.681 C 249.477 108.945,250.368 109.530,251.356 109.980 C 252.343 110.430,253.263 110.979,253.400 111.200 C 253.537 111.421,254.418 111.953,255.359 112.381 C 256.300 112.810,257.301 113.439,257.584 113.780 C 257.866 114.121,258.361 114.400,258.682 114.400 C 259.004 114.400,259.871 114.985,260.609 115.700 C 262.204 117.245,264.333 118.920,265.058 119.201 C 265.344 119.312,267.094 120.887,268.947 122.701 C 270.800 124.516,272.539 126.000,272.811 126.000 C 273.361 126.000,274.800 127.513,274.800 128.092 C 274.800 128.295,276.105 129.804,277.700 131.446 C 279.295 133.087,280.672 134.649,280.759 134.915 C 280.847 135.182,281.432 135.897,282.059 136.503 C 282.687 137.110,283.200 137.869,283.200 138.189 C 283.200 138.510,283.560 138.965,284.000 139.200 C 284.440 139.435,284.800 139.954,284.800 140.352 C 284.800 140.750,285.160 141.402,285.600 141.800 C 286.040 142.198,286.400 142.744,286.400 143.013 C 286.400 143.282,286.679 143.734,287.020 144.016 C 287.361 144.299,287.982 145.282,288.400 146.200 C 288.818 147.118,289.439 148.101,289.780 148.384 C 290.121 148.666,290.404 149.101,290.409 149.349 C 290.414 149.597,290.770 150.250,291.200 150.800 C 291.630 151.350,291.986 152.115,291.991 152.500 C 291.996 152.885,292.191 153.200,292.424 153.200 C 292.657 153.200,292.745 153.365,292.620 153.568 C 292.495 153.770,292.677 154.220,293.025 154.568 C 293.373 154.915,293.545 155.200,293.408 155.200 C 293.270 155.200,293.708 156.201,294.379 157.425 C 295.051 158.648,295.600 159.903,295.600 160.212 C 295.600 160.522,295.960 161.417,296.400 162.200 C 296.840 162.983,297.200 163.943,297.200 164.332 C 297.200 164.721,297.375 165.215,297.589 165.429 C 297.802 165.642,298.038 166.214,298.112 166.698 C 298.186 167.183,298.371 167.704,298.523 167.856 C 298.675 168.009,298.800 168.543,298.800 169.043 C 298.800 169.543,298.980 170.064,299.200 170.200 C 299.420 170.336,299.600 171.056,299.600 171.800 C 299.600 172.544,299.780 173.264,300.000 173.400 C 300.220 173.536,300.400 174.256,300.400 175.000 C 300.400 175.744,300.580 176.464,300.800 176.600 C 301.020 176.736,301.200 177.456,301.200 178.200 C 301.200 178.944,301.380 179.664,301.600 179.800 C 301.820 179.936,302.000 180.901,302.000 181.944 C 302.000 182.987,302.163 184.011,302.363 184.220 C 303.274 185.173,304.065 209.295,303.213 210.147 C 302.986 210.374,302.800 211.683,302.800 213.056 C 302.800 214.429,302.620 215.664,302.400 215.800 C 302.180 215.936,302.000 216.926,302.000 218.000 C 302.000 219.074,301.820 220.064,301.600 220.200 C 301.380 220.336,301.200 221.056,301.200 221.800 C 301.200 222.544,301.020 223.264,300.800 223.400 C 300.580 223.536,300.400 224.256,300.400 225.000 C 300.400 225.744,300.220 226.464,300.000 226.600 C 299.780 226.736,299.600 227.456,299.600 228.200 C 299.600 228.944,299.420 229.664,299.200 229.800 C 298.980 229.936,298.800 230.457,298.800 230.957 C 298.800 231.457,298.675 231.991,298.523 232.144 C 298.371 232.296,298.186 232.817,298.112 233.302 C 298.038 233.786,297.802 234.358,297.589 234.571 C 297.375 234.785,297.200 235.279,297.200 235.668 C 297.200 236.057,296.840 237.017,296.400 237.800 C 295.960 238.583,295.600 239.478,295.600 239.788 C 295.600 240.097,295.051 241.352,294.379 242.575 C 293.708 243.799,293.270 244.800,293.408 244.800 C 293.545 244.800,293.373 245.085,293.025 245.432 C 292.677 245.780,292.495 246.230,292.620 246.432 C 292.745 246.635,292.657 246.800,292.424 246.800 C 292.191 246.800,292.000 247.087,292.000 247.438 C 292.000 247.789,291.672 248.554,291.271 249.138 C 290.870 249.722,290.243 250.850,289.878 251.645 C 289.513 252.440,288.941 253.317,288.607 253.594 C 288.273 253.871,288.000 254.318,288.000 254.587 C 288.000 254.856,287.640 255.402,287.200 255.800 C 286.760 256.198,286.400 256.738,286.400 257.000 C 286.400 257.262,286.040 257.802,285.600 258.200 C 285.160 258.598,284.800 259.250,284.800 259.648 C 284.800 260.046,284.440 260.565,284.000 260.800 C 283.560 261.035,283.200 261.492,283.200 261.815 C 283.200 262.137,282.480 263.100,281.600 263.954 C 280.720 264.808,280.000 265.679,280.000 265.890 C 280.000 266.388,266.367 280.000,265.869 280.000 C 265.522 280.000,263.023 282.035,260.958 283.999 C 260.495 284.440,259.848 284.800,259.520 284.800 C 259.192 284.800,258.598 285.160,258.200 285.600 C 257.802 286.040,257.256 286.400,256.987 286.400 C 256.718 286.400,256.266 286.679,255.984 287.020 C 255.701 287.361,254.700 287.990,253.759 288.419 C 252.818 288.847,251.944 289.367,251.816 289.573 C 251.689 289.780,250.553 290.449,249.292 291.060 C 248.032 291.671,246.940 292.313,246.866 292.488 C 246.792 292.662,246.582 292.712,246.398 292.599 C 246.215 292.485,245.748 292.709,245.361 293.096 C 244.974 293.483,244.592 293.736,244.511 293.659 C 244.262 293.417,242.000 294.478,242.000 294.836 C 242.000 295.022,241.746 295.078,241.436 294.959 C 241.126 294.839,240.336 295.019,239.681 295.358 C 239.026 295.697,236.535 296.613,234.145 297.394 C 231.755 298.176,229.487 298.992,229.105 299.208 C 228.723 299.423,227.879 299.600,227.229 299.600 C 226.579 299.600,225.936 299.780,225.800 300.000 C 225.664 300.220,224.944 300.400,224.200 300.400 C 223.456 300.400,222.736 300.580,222.600 300.800 C 222.464 301.020,221.589 301.200,220.656 301.200 C 219.723 301.200,218.789 301.363,218.580 301.561 C 218.180 301.942,216.037 302.259,211.400 302.624 C 209.860 302.746,208.239 303.022,207.798 303.238 C 206.754 303.749,190.400 303.434,186.400 302.825 C 184.750 302.574,182.364 302.270,181.099 302.149 L 178.797 301.929 150.973 329.760 C 124.468 356.270,123.155 357.652,123.274 358.895 C 123.369 359.881,123.613 360.230,124.269 360.324 C 124.746 360.392,126.816 361.299,128.869 362.339 C 130.921 363.379,133.410 364.485,134.400 364.797 C 135.390 365.108,136.790 365.686,137.512 366.081 C 138.234 366.477,139.168 366.800,139.589 366.800 C 140.009 366.800,140.464 366.980,140.600 367.200 C 140.736 367.420,141.276 367.600,141.800 367.600 C 142.324 367.600,142.864 367.780,143.000 368.000 C 143.136 368.220,143.676 368.400,144.200 368.400 C 144.724 368.400,145.264 368.580,145.400 368.800 C 145.536 369.020,146.051 369.200,146.544 369.200 C 147.037 369.200,147.611 369.349,147.820 369.530 C 148.269 369.921,150.707 370.629,155.800 371.848 C 156.460 372.006,157.135 372.172,157.300 372.217 C 157.465 372.263,157.829 372.322,158.109 372.350 C 158.845 372.422,160.149 375.036,159.844 375.829 C 159.702 376.199,159.764 376.716,159.981 376.977 C 160.198 377.239,160.421 378.040,160.475 378.757 C 160.530 379.474,160.715 380.148,160.887 380.254 C 161.059 380.360,161.200 381.069,161.200 381.829 C 161.200 382.589,161.360 383.523,161.555 383.905 C 161.750 384.287,162.294 386.211,162.764 388.180 C 164.084 393.705,166.732 398.198,169.474 399.565 C 170.721 400.186,229.310 400.175,230.526 399.553 C 233.803 397.878,236.076 393.783,237.604 386.800 C 237.869 385.590,238.246 384.287,238.443 383.905 C 238.639 383.523,238.800 382.769,238.800 382.229 C 238.800 381.689,238.944 381.158,239.120 381.049 C 239.296 380.940,239.486 380.075,239.542 379.126 C 239.597 378.177,239.803 377.239,240.000 377.042 C 240.196 376.845,240.269 376.215,240.162 375.642 C 239.952 374.516,241.309 372.453,242.400 372.241 C 245.917 371.560,251.685 369.961,252.180 369.530 C 252.389 369.349,253.154 369.200,253.880 369.200 C 254.606 369.200,255.200 369.020,255.200 368.800 C 255.200 368.580,255.549 368.400,255.976 368.400 C 256.403 368.400,256.864 368.220,257.000 368.000 C 257.136 367.780,257.676 367.600,258.200 367.600 C 258.724 367.600,259.264 367.420,259.400 367.200 C 259.536 366.980,260.076 366.800,260.600 366.800 C 261.124 366.800,261.664 366.620,261.800 366.400 C 261.936 366.180,262.352 366.000,262.724 366.001 C 263.096 366.002,264.120 365.658,265.000 365.238 C 270.182 362.764,271.890 362.000,272.244 362.000 C 272.883 362.000,274.793 361.027,274.797 360.700 C 274.799 360.535,275.160 360.400,275.600 360.400 C 276.040 360.400,276.400 360.220,276.400 360.000 C 276.400 359.780,276.643 359.600,276.940 359.600 C 277.760 359.600,286.304 355.289,286.469 354.792 C 286.549 354.552,286.908 354.313,287.267 354.261 C 287.626 354.208,288.207 353.926,288.560 353.633 C 288.912 353.341,289.200 353.242,289.200 353.413 C 289.200 353.584,289.530 353.426,289.932 353.061 C 290.335 352.697,290.756 352.490,290.868 352.602 C 290.980 352.713,291.398 352.444,291.798 352.002 C 292.553 351.168,294.000 350.903,294.000 351.600 C 294.000 351.820,294.236 352.000,294.525 352.000 C 294.813 352.000,295.398 352.324,295.825 352.720 C 296.616 353.455,297.995 354.166,298.457 354.078 C 298.598 354.051,299.193 354.472,299.778 355.014 C 300.363 355.556,301.018 356.000,301.235 356.000 C 301.649 356.000,303.658 357.195,304.000 357.644 C 304.110 357.789,305.055 358.308,306.100 358.798 C 307.145 359.287,308.000 359.827,308.000 359.997 C 308.000 360.314,308.112 360.363,311.200 361.390 C 314.584 362.514,322.800 361.806,322.800 360.389 C 322.800 360.223,323.205 359.979,323.700 359.848 C 324.557 359.620,358.851 325.473,359.903 323.800 C 360.180 323.360,360.604 322.550,360.846 322.000 C 361.088 321.450,361.447 320.687,361.643 320.305 C 362.133 319.352,362.096 312.107,361.600 311.800 C 361.380 311.664,361.200 311.231,361.200 310.838 C 361.200 309.847,360.092 307.721,359.447 307.473 C 359.154 307.361,358.807 306.735,358.677 306.083 C 358.546 305.430,358.195 304.650,357.897 304.348 C 357.599 304.047,356.915 302.991,356.378 302.002 C 355.840 301.013,355.091 299.861,354.714 299.442 C 354.336 299.022,354.122 298.526,354.237 298.339 C 354.353 298.153,354.257 298.000,354.024 298.000 C 353.791 298.000,353.600 297.640,353.600 297.200 C 353.600 296.760,353.420 296.400,353.200 296.400 C 352.980 296.400,352.800 296.068,352.800 295.662 C 352.800 295.256,352.440 294.598,352.000 294.200 C 350.991 293.287,350.991 292.713,352.000 291.800 C 352.440 291.402,352.800 290.914,352.800 290.716 C 352.800 290.106,354.374 286.863,354.797 286.602 C 355.331 286.272,358.800 279.324,358.800 278.584 C 358.800 278.263,358.935 277.999,359.100 277.997 C 359.459 277.993,360.400 276.056,360.400 275.320 C 360.400 275.034,360.535 274.799,360.700 274.797 C 361.069 274.793,362.000 272.848,362.000 272.082 C 362.000 271.775,362.540 270.540,363.200 269.337 C 363.860 268.135,364.400 266.937,364.399 266.675 C 364.398 266.264,364.804 265.325,366.463 261.905 C 366.648 261.523,366.800 260.859,366.800 260.429 C 366.800 259.999,366.980 259.536,367.200 259.400 C 367.420 259.264,367.600 258.724,367.600 258.200 C 367.600 257.676,367.780 257.136,368.000 257.000 C 368.220 256.864,368.400 256.403,368.400 255.976 C 368.400 255.549,368.580 255.200,368.800 255.200 C 369.020 255.200,369.200 254.581,369.200 253.824 C 369.200 253.067,369.380 252.336,369.600 252.200 C 369.820 252.064,370.000 251.524,370.000 251.000 C 370.000 250.476,370.197 249.925,370.438 249.776 C 370.679 249.627,370.806 248.902,370.720 248.164 C 370.620 247.312,370.752 246.750,371.082 246.624 C 371.368 246.514,371.600 245.805,371.600 245.036 C 371.600 244.272,371.780 243.536,372.000 243.400 C 372.220 243.264,372.401 242.758,372.403 242.276 C 372.406 241.213,374.387 239.967,375.580 240.279 C 376.033 240.397,376.647 240.293,376.944 240.047 C 377.241 239.800,378.237 239.569,379.159 239.533 C 380.081 239.497,380.927 239.317,381.041 239.134 C 381.154 238.950,381.831 238.800,382.544 238.800 C 383.257 238.800,384.014 238.626,384.227 238.413 C 384.439 238.201,385.195 237.983,385.907 237.928 C 386.618 237.874,387.200 237.688,387.200 237.515 C 387.200 237.342,387.604 237.200,388.099 237.200 C 391.784 237.200,397.844 233.664,399.444 230.581 C 400.270 228.987,400.270 171.013,399.444 169.419 C 397.844 166.336,391.784 162.800,388.099 162.800 C 387.604 162.800,387.200 162.658,387.200 162.485 C 387.200 162.312,386.618 162.126,385.907 162.072 C 385.195 162.017,384.439 161.799,384.227 161.587 C 384.014 161.374,383.257 161.200,382.544 161.200 C 381.831 161.200,381.154 161.050,381.041 160.866 C 380.927 160.683,380.081 160.503,379.159 160.467 C 378.237 160.431,377.241 160.200,376.944 159.953 C 376.647 159.707,376.033 159.603,375.580 159.721 C 374.387 160.033,372.406 158.787,372.403 157.724 C 372.401 157.242,372.220 156.736,372.000 156.600 C 371.780 156.464,371.600 155.728,371.600 154.964 C 371.600 154.195,371.368 153.486,371.082 153.376 C 370.752 153.250,370.620 152.688,370.720 151.836 C 370.806 151.098,370.679 150.373,370.438 150.224 C 370.197 150.075,370.000 149.524,370.000 149.000 C 370.000 148.476,369.820 147.936,369.600 147.800 C 369.380 147.664,369.200 146.933,369.200 146.176 C 369.200 145.419,369.020 144.800,368.800 144.800 C 368.580 144.800,368.400 144.451,368.400 144.024 C 368.400 143.597,368.220 143.136,368.000 143.000 C 367.780 142.864,367.600 142.324,367.600 141.800 C 367.600 141.276,367.420 140.736,367.200 140.600 C 366.980 140.464,366.800 140.001,366.800 139.571 C 366.800 139.141,366.648 138.477,366.463 138.095 C 364.804 134.675,364.398 133.736,364.399 133.325 C 364.400 133.063,363.860 131.865,363.200 130.663 C 362.540 129.460,362.000 128.225,362.000 127.918 C 362.000 127.152,361.069 125.207,360.700 125.203 C 360.535 125.201,360.400 124.966,360.400 124.680 C 360.400 123.944,359.459 122.007,359.100 122.003 C 358.935 122.001,358.800 121.737,358.800 121.416 C 358.800 120.676,355.331 113.728,354.797 113.398 C 354.374 113.137,352.800 109.894,352.800 109.284 C 352.800 109.086,352.440 108.598,352.000 108.200 C 350.991 107.287,350.991 106.713,352.000 105.800 C 352.440 105.402,352.800 104.744,352.800 104.338 C 352.800 103.932,352.980 103.600,353.200 103.600 C 353.420 103.600,353.600 103.240,353.600 102.800 C 353.600 102.360,353.791 102.000,354.024 102.000 C 354.257 102.000,354.353 101.847,354.237 101.661 C 354.122 101.474,354.336 100.978,354.714 100.558 C 355.091 100.139,355.840 98.987,356.378 97.998 C 356.915 97.009,357.599 95.953,357.897 95.652 C 358.195 95.350,358.546 94.570,358.677 93.917 C 358.807 93.265,359.154 92.639,359.447 92.527 C 360.092 92.279,361.200 90.153,361.200 89.162 C 361.200 88.769,361.380 88.336,361.600 88.200 C 362.096 87.893,362.133 80.648,361.643 79.695 C 361.447 79.313,361.088 78.550,360.846 78.000 C 360.604 77.450,360.180 76.640,359.903 76.200 C 358.849 74.524,324.556 40.377,323.700 40.151 C 323.205 40.020,322.800 39.777,322.800 39.611 C 322.800 38.194,314.584 37.486,311.200 38.610 C 308.112 39.637,308.000 39.686,308.000 40.003 C 308.000 40.173,307.145 40.713,306.100 41.202 C 305.055 41.692,304.110 42.211,304.000 42.356 C 303.658 42.805,301.649 44.000,301.235 44.000 C 301.018 44.000,300.363 44.444,299.778 44.986 C 299.193 45.528,298.598 45.949,298.457 45.922 C 297.995 45.834,296.616 46.545,295.825 47.280 C 295.398 47.676,294.813 48.000,294.525 48.000 C 294.236 48.000,294.000 48.180,294.000 48.400 C 294.000 49.097,292.553 48.832,291.798 47.998 C 291.398 47.556,290.980 47.287,290.868 47.398 C 290.756 47.510,290.335 47.303,289.932 46.939 C 289.530 46.574,289.200 46.416,289.200 46.587 C 289.200 46.758,288.912 46.659,288.560 46.367 C 288.207 46.074,287.626 45.792,287.267 45.739 C 286.908 45.687,286.549 45.448,286.469 45.208 C 286.304 44.711,277.760 40.400,276.940 40.400 C 276.643 40.400,276.400 40.220,276.400 40.000 C 276.400 39.780,276.040 39.600,275.600 39.600 C 275.160 39.600,274.799 39.465,274.797 39.300 C 274.793 38.973,272.883 38.000,272.244 38.000 C 271.890 38.000,270.182 37.236,265.000 34.762 C 264.120 34.342,263.096 33.998,262.724 33.999 C 262.352 34.000,261.936 33.820,261.800 33.600 C 261.664 33.380,261.124 33.200,260.600 33.200 C 260.076 33.200,259.536 33.020,259.400 32.800 C 259.264 32.580,258.724 32.400,258.200 32.400 C 257.676 32.400,257.136 32.220,257.000 32.000 C 256.864 31.780,256.403 31.600,255.976 31.600 C 255.549 31.600,255.200 31.420,255.200 31.200 C 255.200 30.980,254.606 30.800,253.880 30.800 C 253.154 30.800,252.389 30.651,252.180 30.470 C 251.685 30.039,245.917 28.440,242.400 27.759 C 241.309 27.547,239.952 25.484,240.162 24.358 C 240.269 23.785,240.196 23.155,240.000 22.958 C 239.803 22.761,239.597 21.823,239.542 20.874 C 239.486 19.925,239.296 19.060,239.120 18.951 C 238.944 18.842,238.800 18.311,238.800 17.771 C 238.800 17.231,238.639 16.477,238.443 16.095 C 238.246 15.713,237.869 14.410,237.604 13.200 C 236.076 6.217,233.803 2.122,230.526 0.447 C 229.323 -0.169,170.550 -0.163,169.400 0.452 " stroke="none" fill="#34a4dc" fill-rule="evenodd"></path><path id="path1" d="M188.200 117.200 C 188.064 117.420,187.031 117.600,185.905 117.600 C 184.778 117.600,183.304 117.768,182.628 117.973 C 181.953 118.178,180.590 118.562,179.600 118.827 C 176.102 119.762,174.993 120.102,174.305 120.449 C 173.923 120.642,173.248 120.800,172.805 120.800 C 172.362 120.800,172.000 120.980,172.000 121.200 C 172.000 121.420,171.460 121.600,170.800 121.600 C 170.140 121.600,169.600 121.780,169.600 122.000 C 169.600 122.220,169.060 122.400,168.400 122.400 C 167.740 122.400,167.200 122.580,167.200 122.800 C 167.200 123.020,166.840 123.200,166.400 123.200 C 165.960 123.200,165.600 123.380,165.600 123.600 C 165.600 123.820,165.240 124.000,164.800 124.000 C 164.360 124.000,164.000 124.180,164.000 124.400 C 164.000 124.620,163.640 124.800,163.200 124.800 C 162.760 124.800,162.400 125.010,162.400 125.267 C 162.400 125.523,162.280 125.613,162.132 125.466 C 161.985 125.319,161.535 125.497,161.132 125.861 C 160.730 126.226,160.400 126.401,160.400 126.252 C 160.400 125.957,157.929 127.134,157.600 127.586 C 157.490 127.736,156.591 128.296,155.602 128.830 C 154.613 129.363,153.455 130.115,153.027 130.500 C 152.599 130.885,152.095 131.200,151.906 131.200 C 151.718 131.200,151.140 131.605,150.623 132.100 C 150.105 132.595,148.636 133.810,147.357 134.800 C 144.248 137.207,136.400 144.829,136.400 145.441 C 136.400 145.710,135.879 146.367,135.242 146.903 C 134.605 147.439,133.812 148.400,133.480 149.039 C 133.148 149.678,132.409 150.636,131.838 151.170 C 131.267 151.703,130.800 152.356,130.800 152.621 C 130.800 152.885,130.521 153.334,130.180 153.616 C 129.839 153.899,129.201 154.866,128.761 155.765 C 128.322 156.664,127.524 158.007,126.988 158.749 C 126.452 159.491,126.102 160.241,126.209 160.415 C 126.317 160.589,126.251 160.792,126.063 160.866 C 125.585 161.053,122.400 167.683,122.400 168.490 C 122.400 168.855,122.220 169.264,122.000 169.400 C 121.780 169.536,121.600 170.076,121.600 170.600 C 121.600 171.124,121.420 171.664,121.200 171.800 C 120.980 171.936,120.800 172.476,120.800 173.000 C 120.800 173.524,120.620 174.064,120.400 174.200 C 120.180 174.336,120.000 174.876,120.000 175.400 C 120.000 175.924,119.820 176.464,119.600 176.600 C 119.380 176.736,119.200 177.456,119.200 178.200 C 119.200 178.944,119.020 179.664,118.800 179.800 C 118.580 179.936,118.400 180.656,118.400 181.400 C 118.400 182.144,118.220 182.864,118.000 183.000 C 117.780 183.136,117.600 184.486,117.600 186.000 C 117.600 187.514,117.420 188.864,117.200 189.000 C 116.688 189.317,116.655 210.490,117.166 211.020 C 117.368 211.229,117.626 212.480,117.740 213.800 C 118.016 216.988,118.378 219.223,118.775 220.200 C 118.954 220.640,119.303 221.503,119.550 222.119 C 119.798 222.734,120.000 223.759,120.000 224.395 C 120.000 225.032,120.190 225.670,120.422 225.814 C 121.350 226.387,118.636 229.183,64.000 283.940 C -1.046 349.130,4.642 343.059,0.651 351.561 C -0.021 352.993,0.024 377.384,0.700 378.060 C 0.975 378.335,1.200 378.856,1.200 379.219 C 1.200 380.006,2.294 382.287,2.831 382.619 C 3.040 382.748,3.568 383.553,4.003 384.407 C 4.439 385.260,5.201 386.373,5.698 386.879 C 6.194 387.386,6.844 388.250,7.141 388.800 C 7.439 389.350,8.753 390.700,10.061 391.800 C 11.369 392.900,12.836 394.164,13.320 394.610 C 13.804 395.055,15.216 395.914,16.459 396.519 C 17.701 397.124,18.938 397.884,19.208 398.209 C 19.477 398.534,20.090 398.800,20.569 398.800 C 21.048 398.800,21.665 399.025,21.940 399.300 C 22.695 400.056,47.024 400.013,48.639 399.253 C 51.549 397.883,55.867 395.372,57.515 394.089 C 58.285 393.490,84.432 367.547,115.618 336.438 C 175.325 276.880,173.172 278.967,174.286 279.549 C 174.679 279.754,175.810 280.138,176.800 280.403 C 177.790 280.667,179.013 281.045,179.519 281.242 C 180.024 281.439,181.049 281.600,181.795 281.600 C 182.542 281.600,183.264 281.780,183.400 282.000 C 183.536 282.220,184.616 282.400,185.800 282.400 C 186.984 282.400,188.064 282.580,188.200 282.800 C 188.517 283.313,211.289 283.346,211.820 282.834 C 212.029 282.632,213.280 282.382,214.600 282.277 C 215.920 282.172,217.810 281.872,218.800 281.611 C 219.790 281.349,221.320 281.041,222.200 280.926 C 223.080 280.812,223.971 280.556,224.180 280.359 C 224.389 280.162,224.963 280.000,225.456 280.000 C 225.949 280.000,226.464 279.820,226.600 279.600 C 226.736 279.380,227.287 279.200,227.824 279.200 C 228.361 279.200,228.800 279.020,228.800 278.800 C 228.800 278.580,229.340 278.400,230.000 278.400 C 230.660 278.400,231.200 278.220,231.200 278.000 C 231.200 277.780,231.740 277.600,232.400 277.600 C 233.060 277.600,233.600 277.420,233.600 277.200 C 233.600 276.980,233.960 276.800,234.400 276.800 C 234.840 276.800,235.200 276.620,235.200 276.400 C 235.200 276.180,235.740 276.000,236.400 276.000 C 237.060 276.000,237.600 275.820,237.600 275.600 C 237.600 275.380,237.825 275.198,238.100 275.196 C 238.566 275.192,239.512 274.723,243.474 272.532 C 250.126 268.853,266.800 253.695,266.800 251.328 C 266.800 251.106,267.160 250.598,267.600 250.200 C 268.040 249.802,268.400 249.262,268.400 249.000 C 268.400 248.738,268.760 248.198,269.200 247.800 C 269.640 247.402,270.000 246.856,270.000 246.587 C 270.000 246.318,270.279 245.866,270.620 245.584 C 270.961 245.301,271.582 244.318,272.000 243.400 C 272.418 242.482,273.037 241.501,273.376 241.220 C 273.714 240.939,273.893 240.550,273.772 240.355 C 273.651 240.160,273.736 240.000,273.961 240.000 C 274.185 240.000,274.560 239.290,274.794 238.423 C 275.027 237.556,275.754 235.828,276.409 234.583 C 277.064 233.337,277.600 231.988,277.600 231.583 C 277.600 231.178,277.780 230.736,278.000 230.600 C 278.220 230.464,278.400 230.009,278.400 229.589 C 278.400 229.168,278.760 228.183,279.200 227.400 C 279.640 226.617,280.000 225.452,280.000 224.811 C 280.000 224.171,280.180 223.536,280.400 223.400 C 280.620 223.264,280.800 222.569,280.800 221.856 C 280.800 221.143,280.962 220.389,281.159 220.180 C 281.512 219.806,281.815 218.148,282.252 214.200 C 282.374 213.100,282.637 212.029,282.837 211.820 C 283.312 211.323,283.312 188.677,282.837 188.180 C 282.637 187.971,282.374 186.900,282.252 185.800 C 281.815 181.852,281.512 180.194,281.159 179.820 C 280.962 179.611,280.800 178.857,280.800 178.144 C 280.800 177.431,280.620 176.736,280.400 176.600 C 280.180 176.464,279.998 175.958,279.997 175.476 C 279.985 172.449,273.263 168.400,268.249 168.400 C 262.296 168.400,262.449 168.287,245.574 185.076 C 237.529 193.078,230.239 200.110,229.374 200.701 C 226.680 202.541,222.746 204.400,221.547 204.400 C 220.916 204.400,220.400 204.580,220.400 204.800 C 220.400 205.040,218.800 205.200,216.400 205.200 C 214.000 205.200,212.400 205.040,212.400 204.800 C 212.400 204.580,211.961 204.400,211.424 204.400 C 210.887 204.400,210.336 204.220,210.200 204.000 C 210.064 203.780,209.558 203.588,209.076 203.573 C 206.635 203.499,198.778 196.803,197.595 193.788 C 197.296 193.025,196.904 192.400,196.725 192.400 C 196.546 192.400,196.400 191.871,196.400 191.224 C 196.400 190.577,196.220 189.936,196.000 189.800 C 195.780 189.664,195.600 189.124,195.600 188.600 C 195.600 188.076,195.420 187.536,195.200 187.400 C 194.980 187.264,194.800 185.554,194.800 183.600 C 194.800 181.646,194.980 179.936,195.200 179.800 C 195.420 179.664,195.600 179.058,195.600 178.453 C 195.600 177.343,197.818 172.528,198.906 171.278 C 199.230 170.905,199.564 170.379,199.648 170.108 C 199.732 169.838,206.370 162.979,214.400 154.867 C 229.627 139.484,230.800 138.196,230.800 136.860 C 230.800 136.413,230.980 135.936,231.200 135.800 C 232.073 135.261,231.668 128.270,230.647 126.254 C 229.445 123.879,225.806 120.137,224.439 119.869 C 223.867 119.757,222.680 119.453,221.800 119.192 C 220.920 118.931,219.480 118.628,218.600 118.518 C 217.720 118.408,216.829 118.156,216.620 117.959 C 216.411 117.762,215.297 117.600,214.144 117.600 C 212.991 117.600,211.936 117.420,211.800 117.200 C 211.644 116.948,207.270 116.800,200.000 116.800 C 192.730 116.800,188.356 116.948,188.200 117.200 " stroke="none" fill="#3c5c74" fill-rule="evenodd"></path></g></svg>